<svg width="144" height="24" viewBox="0 0 144 24" fill="none" xmlns="http://www.w3.org/2000/svg">
<path d="M1.728 17.5L1.904 16.332L3.504 15.916L3.2 16.252L4.576 7.548L4.944 7.916H2.448L3.008 7.468L2.304 9.484H0.976L1.488 6.236H10.336L9.808 9.484H8.48L8.384 7.548L8.816 7.916H6.288L6.832 7.548L5.456 16.252L5.312 15.916L6.752 16.332L6.576 17.5H1.728ZM15.0334 17.58L15.8974 12.22C15.9614 11.8893 15.9774 11.596 15.9454 11.34C15.9134 11.084 15.8387 10.8813 15.7214 10.732C15.604 10.5827 15.4227 10.508 15.1774 10.508C14.9534 10.508 14.7187 10.5773 14.4734 10.716C14.2387 10.8547 14.0094 11.0627 13.7854 11.34C13.572 11.6067 13.38 11.9533 13.2094 12.38C13.0387 12.796 12.9107 13.292 12.8254 13.868L12.2494 17.5H10.0414L11.8174 6.348L12.0894 6.732L10.6814 6.38L10.8734 5.164L14.2014 5.036L13.0334 11.612L12.2014 12.828C12.4254 11.868 12.7507 11.0893 13.1774 10.492C13.6147 9.89467 14.1 9.45733 14.6334 9.18C15.1667 8.90267 15.6787 8.764 16.1694 8.764C16.66 8.764 17.0707 8.88667 17.4014 9.132C17.732 9.36667 17.9667 9.708 18.1054 10.156C18.2547 10.5933 18.276 11.116 18.1694 11.724L17.4494 16.3L16.5054 15.612L18.6014 16.284L18.3934 17.484L15.0334 17.58ZM22.9628 17.692C22.3441 17.692 21.7841 17.5693 21.2828 17.324C20.7814 17.0787 20.3814 16.6947 20.0828 16.172C19.7948 15.6493 19.6508 14.972 19.6508 14.14C19.6508 13.4573 19.7574 12.796 19.9708 12.156C20.1948 11.5053 20.5094 10.9293 20.9148 10.428C21.3308 9.916 21.8374 9.51067 22.4348 9.212C23.0321 8.91333 23.7094 8.764 24.4668 8.764C25.3628 8.764 26.0614 8.972 26.5628 9.388C27.0748 9.79333 27.3308 10.332 27.3308 11.004C27.3308 11.5053 27.1868 11.948 26.8988 12.332C26.6108 12.716 26.2214 13.0413 25.7308 13.308C25.2508 13.564 24.7014 13.7613 24.0828 13.9C23.4748 14.028 22.8401 14.092 22.1788 14.092C22.0614 14.092 21.9548 14.092 21.8588 14.092C21.7734 14.0813 21.6934 14.076 21.6188 14.076L21.7308 12.652C21.8481 12.6627 21.9601 12.6733 22.0668 12.684C22.1841 12.6947 22.3014 12.7 22.4188 12.7C22.7494 12.7 23.0748 12.6733 23.3948 12.62C23.7254 12.556 24.0188 12.4653 24.2748 12.348C24.5414 12.22 24.7548 12.0653 24.9148 11.884C25.0748 11.692 25.1548 11.4733 25.1548 11.228C25.1548 10.972 25.0641 10.764 24.8828 10.604C24.7121 10.4333 24.4721 10.348 24.1628 10.348C23.7894 10.348 23.4588 10.4653 23.1708 10.7C22.8934 10.924 22.6534 11.2227 22.4508 11.596C22.2588 11.9693 22.1094 12.3747 22.0028 12.812C21.8961 13.2493 21.8428 13.676 21.8428 14.092C21.8428 14.796 21.9868 15.3027 22.2748 15.612C22.5734 15.9213 22.9681 16.076 23.4588 16.076C23.8108 16.076 24.1894 16.012 24.5948 15.884C25.0001 15.756 25.4214 15.58 25.8588 15.356L26.4348 16.652C25.8481 16.9933 25.2561 17.2547 24.6588 17.436C24.0721 17.6067 23.5068 17.692 22.9628 17.692ZM35.1929 17.692C34.4569 17.692 33.7795 17.5213 33.1609 17.18C32.5529 16.8387 32.0622 16.316 31.6889 15.612C31.3262 14.8973 31.1449 14.0067 31.1449 12.94C31.1449 12.044 31.2782 11.1853 31.5449 10.364C31.8222 9.532 32.2115 8.796 32.7129 8.156C33.2249 7.50533 33.8382 6.99333 34.5529 6.62C35.2782 6.236 36.0889 6.044 36.9849 6.044C37.5289 6.044 38.0782 6.11867 38.6329 6.268C39.1875 6.40667 39.7635 6.61467 40.3609 6.892L39.8009 9.724H38.4729L38.3769 7.9L38.7609 8.236C38.4409 8.09733 38.1209 7.996 37.8009 7.932C37.4915 7.868 37.2089 7.836 36.9529 7.836C36.3875 7.836 35.8915 7.98533 35.4649 8.284C35.0382 8.58267 34.6755 8.97733 34.3769 9.468C34.0889 9.95867 33.8702 10.5027 33.7209 11.1C33.5822 11.6867 33.5129 12.268 33.5129 12.844C33.5129 13.548 33.6089 14.1187 33.8009 14.556C34.0035 14.9933 34.2702 15.3133 34.6009 15.516C34.9422 15.7187 35.3209 15.82 35.7369 15.82C36.1529 15.82 36.5902 15.724 37.0489 15.532C37.5182 15.34 37.9715 15.068 38.4089 14.716L39.1449 16.14C38.5155 16.6627 37.8595 17.052 37.1769 17.308C36.4942 17.564 35.8329 17.692 35.1929 17.692ZM44.9046 8.764C45.5446 8.764 46.11 8.88133 46.6006 9.116C47.0913 9.34 47.4753 9.71333 47.7526 10.236C48.03 10.748 48.1686 11.4253 48.1686 12.268C48.1686 12.94 48.0726 13.6013 47.8806 14.252C47.6886 14.892 47.3953 15.4733 47.0006 15.996C46.606 16.508 46.1046 16.9187 45.4966 17.228C44.8993 17.5373 44.19 17.692 43.3686 17.692C42.718 17.692 42.1473 17.5747 41.6566 17.34C41.166 17.1053 40.782 16.732 40.5046 16.22C40.238 15.708 40.1046 15.036 40.1046 14.204C40.1046 13.532 40.1953 12.876 40.3766 12.236C40.5686 11.5853 40.862 10.9987 41.2566 10.476C41.6513 9.95333 42.1473 9.53733 42.7446 9.228C43.3526 8.91867 44.0726 8.764 44.9046 8.764ZM44.6006 10.38C44.1846 10.38 43.8326 10.5133 43.5446 10.78C43.2566 11.036 43.022 11.3667 42.8406 11.772C42.67 12.1667 42.542 12.5827 42.4566 13.02C42.382 13.4573 42.3446 13.852 42.3446 14.204C42.3446 14.78 42.446 15.2387 42.6486 15.58C42.862 15.9107 43.198 16.076 43.6566 16.076C44.0726 16.076 44.4246 15.948 44.7126 15.692C45.0006 15.4253 45.2353 15.0893 45.4166 14.684C45.598 14.2787 45.726 13.8573 45.8006 13.42C45.886 12.9827 45.9286 12.588 45.9286 12.236C45.9286 11.66 45.822 11.2067 45.6086 10.876C45.406 10.5453 45.07 10.38 44.6006 10.38ZM47.7934 21.372C47.5587 21.372 47.3454 21.356 47.1534 21.324C46.9507 21.3027 46.7747 21.2813 46.6254 21.26L46.9774 19.708C47.0734 19.7187 47.1694 19.7293 47.2654 19.74C47.3614 19.7507 47.4574 19.756 47.5534 19.756C48.012 19.756 48.3854 19.628 48.6734 19.372C48.972 19.1267 49.1694 18.7 49.2654 18.092L50.5294 10.124L50.8814 10.54H49.2334L49.4254 9.324L50.9614 8.972L50.6574 9.372L50.8174 8.3C50.9347 7.55333 51.18 6.94 51.5534 6.46C51.9374 5.98 52.4174 5.62267 52.9934 5.388C53.5694 5.15333 54.204 5.036 54.8974 5.036C55.4627 5.036 56.06 5.116 56.6894 5.276C57.3187 5.42533 57.948 5.644 58.5774 5.932L57.2174 7.18C56.844 6.988 56.4654 6.83867 56.0814 6.732C55.708 6.62533 55.356 6.572 55.0254 6.572C54.524 6.572 54.092 6.70533 53.7294 6.972C53.3667 7.228 53.1374 7.63867 53.0414 8.204L52.8334 9.452L52.5454 9.02H57.4574L57.2334 10.54H52.2894L52.7214 10.124L51.5534 17.548C51.4254 18.316 51.2334 18.9453 50.9774 19.436C50.7214 19.9373 50.4227 20.3267 50.0814 20.604C49.74 20.892 49.372 21.0893 48.9774 21.196C48.5827 21.3133 48.188 21.372 47.7934 21.372ZM53.1374 21.372C52.9027 21.372 52.684 21.356 52.4814 21.324C52.2894 21.3027 52.1187 21.2813 51.9694 21.26L52.3214 19.708C52.396 19.708 52.4814 19.7133 52.5774 19.724C52.684 19.7453 52.7907 19.756 52.8974 19.756C53.164 19.756 53.3934 19.7187 53.5854 19.644C53.788 19.5693 53.9534 19.4573 54.0814 19.308C54.2094 19.1693 54.316 18.9987 54.4014 18.796C54.4867 18.5933 54.5507 18.3587 54.5934 18.092L56.1614 8.268C56.3427 7.116 56.7694 6.27333 57.4414 5.74C58.124 5.196 58.9347 4.924 59.8734 4.924C60.1827 4.924 60.4867 4.95067 60.7854 5.004C61.0947 5.05733 61.404 5.13733 61.7134 5.244L61.1534 6.764C60.9934 6.7 60.8227 6.652 60.6414 6.62C60.46 6.57733 60.2787 6.556 60.0974 6.556C59.6814 6.556 59.3134 6.67867 58.9934 6.924C58.6734 7.15867 58.4707 7.55867 58.3854 8.124L58.1934 9.34L57.9694 9.02H60.4174L60.1614 10.54H57.8094L58.0334 10.268L56.8814 17.564C56.7747 18.268 56.5987 18.86 56.3534 19.34C56.1187 19.8307 55.8307 20.2253 55.4894 20.524C55.1587 20.8227 54.7907 21.036 54.3854 21.164C53.98 21.3027 53.564 21.372 53.1374 21.372ZM63.369 17.692C62.7503 17.692 62.1903 17.5693 61.689 17.324C61.1877 17.0787 60.7877 16.6947 60.489 16.172C60.201 15.6493 60.057 14.972 60.057 14.14C60.057 13.4573 60.1637 12.796 60.377 12.156C60.601 11.5053 60.9157 10.9293 61.321 10.428C61.737 9.916 62.2437 9.51067 62.841 9.212C63.4383 8.91333 64.1157 8.764 64.873 8.764C65.769 8.764 66.4677 8.972 66.969 9.388C67.481 9.79333 67.737 10.332 67.737 11.004C67.737 11.5053 67.593 11.948 67.305 12.332C67.017 12.716 66.6277 13.0413 66.137 13.308C65.657 13.564 65.1077 13.7613 64.489 13.9C63.881 14.028 63.2463 14.092 62.585 14.092C62.4677 14.092 62.361 14.092 62.265 14.092C62.1797 14.0813 62.0997 14.076 62.025 14.076L62.137 12.652C62.2543 12.6627 62.3663 12.6733 62.473 12.684C62.5903 12.6947 62.7077 12.7 62.825 12.7C63.1557 12.7 63.481 12.6733 63.801 12.62C64.1317 12.556 64.425 12.4653 64.681 12.348C64.9477 12.22 65.161 12.0653 65.321 11.884C65.481 11.692 65.561 11.4733 65.561 11.228C65.561 10.972 65.4703 10.764 65.289 10.604C65.1183 10.4333 64.8783 10.348 64.569 10.348C64.1957 10.348 63.865 10.4653 63.577 10.7C63.2997 10.924 63.0597 11.2227 62.857 11.596C62.665 11.9693 62.5157 12.3747 62.409 12.812C62.3023 13.2493 62.249 13.676 62.249 14.092C62.249 14.796 62.393 15.3027 62.681 15.612C62.9797 15.9213 63.3743 16.076 63.865 16.076C64.217 16.076 64.5957 16.012 65.001 15.884C65.4063 15.756 65.8277 15.58 66.265 15.356L66.841 16.652C66.2543 16.9933 65.6623 17.2547 65.065 17.436C64.4783 17.6067 63.913 17.692 63.369 17.692ZM71.6346 17.692C71.016 17.692 70.456 17.5693 69.9546 17.324C69.4533 17.0787 69.0533 16.6947 68.7546 16.172C68.4666 15.6493 68.3226 14.972 68.3226 14.14C68.3226 13.4573 68.4293 12.796 68.6426 12.156C68.8666 11.5053 69.1813 10.9293 69.5866 10.428C70.0026 9.916 70.5093 9.51067 71.1066 9.212C71.704 8.91333 72.3813 8.764 73.1386 8.764C74.0346 8.764 74.7333 8.972 75.2346 9.388C75.7466 9.79333 76.0026 10.332 76.0026 11.004C76.0026 11.5053 75.8586 11.948 75.5706 12.332C75.2826 12.716 74.8933 13.0413 74.4026 13.308C73.9226 13.564 73.3733 13.7613 72.7546 13.9C72.1466 14.028 71.512 14.092 70.8506 14.092C70.7333 14.092 70.6266 14.092 70.5306 14.092C70.4453 14.0813 70.3653 14.076 70.2906 14.076L70.4026 12.652C70.52 12.6627 70.632 12.6733 70.7386 12.684C70.856 12.6947 70.9733 12.7 71.0906 12.7C71.4213 12.7 71.7466 12.6733 72.0666 12.62C72.3973 12.556 72.6906 12.4653 72.9466 12.348C73.2133 12.22 73.4266 12.0653 73.5866 11.884C73.7466 11.692 73.8266 11.4733 73.8266 11.228C73.8266 10.972 73.736 10.764 73.5546 10.604C73.384 10.4333 73.144 10.348 72.8346 10.348C72.4613 10.348 72.1306 10.4653 71.8426 10.7C71.5653 10.924 71.3253 11.2227 71.1226 11.596C70.9306 11.9693 70.7813 12.3747 70.6746 12.812C70.568 13.2493 70.5146 13.676 70.5146 14.092C70.5146 14.796 70.6586 15.3027 70.9466 15.612C71.2453 15.9213 71.64 16.076 72.1306 16.076C72.4826 16.076 72.8613 16.012 73.2666 15.884C73.672 15.756 74.0933 15.58 74.5306 15.356L75.1066 16.652C74.52 16.9933 73.928 17.2547 73.3306 17.436C72.744 17.6067 72.1786 17.692 71.6346 17.692ZM82.6968 17.692C82.1528 17.692 81.5874 17.6333 81.0008 17.516C80.4248 17.3987 79.8648 17.228 79.3208 17.004L79.8168 13.98H81.1608L81.2088 15.916L81.0008 15.548C81.3101 15.6867 81.6301 15.7933 81.9608 15.868C82.3021 15.9427 82.6381 15.98 82.9688 15.98C83.3741 15.98 83.7474 15.9213 84.0888 15.804C84.4301 15.676 84.7021 15.4947 84.9048 15.26C85.1181 15.0253 85.2248 14.7373 85.2248 14.396C85.2248 14.0333 85.1128 13.7453 84.8888 13.532C84.6648 13.3187 84.3714 13.1373 84.0088 12.988C83.6568 12.8387 83.2781 12.6893 82.8728 12.54C82.4674 12.3907 82.0834 12.204 81.7208 11.98C81.3688 11.7453 81.0754 11.4413 80.8408 11.068C80.6168 10.6947 80.5048 10.2093 80.5048 9.612C80.5048 8.82267 80.7021 8.16667 81.0968 7.644C81.5021 7.12133 82.0354 6.72667 82.6968 6.46C83.3688 6.18267 84.1048 6.044 84.9048 6.044C85.4381 6.044 85.9874 6.108 86.5528 6.236C87.1181 6.35333 87.6781 6.52933 88.2328 6.764L87.6568 9.548H86.3448L86.2808 7.82L86.5528 8.06C86.2754 7.95333 85.9874 7.87333 85.6888 7.82C85.3901 7.76667 85.1021 7.74 84.8248 7.74C84.4514 7.74 84.1048 7.79333 83.7848 7.9C83.4648 7.996 83.2088 8.15067 83.0168 8.364C82.8248 8.57733 82.7288 8.83867 82.7288 9.148C82.7288 9.47867 82.8408 9.74533 83.0648 9.948C83.2994 10.14 83.5981 10.3107 83.9608 10.46C84.3234 10.5987 84.7021 10.748 85.0968 10.908C85.5021 11.0573 85.8861 11.2493 86.2488 11.484C86.6114 11.708 86.9048 12.012 87.1288 12.396C87.3634 12.78 87.4808 13.2813 87.4808 13.9C87.4808 14.7427 87.2568 15.4467 86.8088 16.012C86.3714 16.5667 85.7901 16.988 85.0648 17.276C84.3501 17.5533 83.5608 17.692 82.6968 17.692ZM93.7834 17.58L94.6474 12.22C94.7114 11.8893 94.7274 11.596 94.6954 11.34C94.6634 11.084 94.5887 10.8813 94.4714 10.732C94.354 10.5827 94.1727 10.508 93.9274 10.508C93.7034 10.508 93.4687 10.5773 93.2234 10.716C92.9887 10.8547 92.7594 11.0627 92.5354 11.34C92.322 11.6067 92.13 11.9533 91.9594 12.38C91.7887 12.796 91.6607 13.292 91.5754 13.868L90.9994 17.5H88.7914L90.5674 6.348L90.8394 6.732L89.4314 6.38L89.6234 5.164L92.9514 5.036L91.7834 11.612L90.9514 12.828C91.1754 11.868 91.5007 11.0893 91.9274 10.492C92.3647 9.89467 92.85 9.45733 93.3834 9.18C93.9167 8.90267 94.4287 8.764 94.9194 8.764C95.41 8.764 95.8207 8.88667 96.1514 9.132C96.482 9.36667 96.7167 9.708 96.8554 10.156C97.0047 10.5933 97.026 11.116 96.9194 11.724L96.1994 16.3L95.2554 15.612L97.3514 16.284L97.1434 17.484L93.7834 17.58ZM103.233 8.764C103.873 8.764 104.438 8.88133 104.929 9.116C105.419 9.34 105.803 9.71333 106.081 10.236C106.358 10.748 106.497 11.4253 106.497 12.268C106.497 12.94 106.401 13.6013 106.209 14.252C106.017 14.892 105.723 15.4733 105.329 15.996C104.934 16.508 104.433 16.9187 103.825 17.228C103.227 17.5373 102.518 17.692 101.697 17.692C101.046 17.692 100.475 17.5747 99.9848 17.34C99.4941 17.1053 99.1101 16.732 98.8328 16.22C98.5661 15.708 98.4328 15.036 98.4328 14.204C98.4328 13.532 98.5234 12.876 98.7048 12.236C98.8968 11.5853 99.1901 10.9987 99.5848 10.476C99.9794 9.95333 100.475 9.53733 101.073 9.228C101.681 8.91867 102.401 8.764 103.233 8.764ZM102.929 10.38C102.513 10.38 102.161 10.5133 101.873 10.78C101.585 11.036 101.35 11.3667 101.169 11.772C100.998 12.1667 100.87 12.5827 100.785 13.02C100.71 13.4573 100.673 13.852 100.673 14.204C100.673 14.78 100.774 15.2387 100.977 15.58C101.19 15.9107 101.526 16.076 101.985 16.076C102.401 16.076 102.753 15.948 103.041 15.692C103.329 15.4253 103.563 15.0893 103.745 14.684C103.926 14.2787 104.054 13.8573 104.129 13.42C104.214 12.9827 104.257 12.588 104.257 12.236C104.257 11.66 104.15 11.2067 103.937 10.876C103.734 10.5453 103.398 10.38 102.929 10.38ZM105.913 21.18L106.105 20.012L108.33 19.356L107.162 20.588L108.794 10.188L109.082 10.572L107.642 10.172L107.834 9.004L111.082 8.892L110.506 11.66L109.914 12.812C110.095 11.916 110.383 11.1693 110.778 10.572C111.183 9.964 111.642 9.51067 112.154 9.212C112.676 8.91333 113.188 8.764 113.69 8.764C114.106 8.764 114.49 8.87067 114.842 9.084C115.194 9.29733 115.476 9.644 115.69 10.124C115.903 10.604 116.01 11.2387 116.01 12.028C116.01 13.0627 115.828 13.9693 115.466 14.748C115.103 15.5267 114.596 16.156 113.946 16.636C113.295 17.116 112.516 17.4253 111.61 17.564C110.714 17.7027 109.732 17.6493 108.666 17.404L109.882 17.196L109.338 20.652L108.554 19.324L110.698 20.012L110.506 21.18H105.913ZM110.026 16.3L109.594 15.708C110.223 15.9533 110.794 16.0387 111.306 15.964C111.828 15.8893 112.271 15.692 112.634 15.372C112.996 15.0413 113.274 14.6093 113.466 14.076C113.668 13.5427 113.77 12.94 113.77 12.268C113.77 11.6493 113.674 11.2067 113.482 10.94C113.3 10.6627 113.06 10.524 112.762 10.524C112.538 10.524 112.308 10.5987 112.074 10.748C111.839 10.8973 111.61 11.116 111.386 11.404C111.162 11.692 110.964 12.0493 110.794 12.476C110.623 12.9027 110.495 13.3933 110.41 13.948L110.026 16.3Z" fill="#EEEDEB"/>
<path d="M1.728 17.5L1.904 16.332L3.504 15.916L3.2 16.252L4.576 7.548L4.944 7.916H2.448L3.008 7.468L2.304 9.484H0.976L1.488 6.236H10.336L9.808 9.484H8.48L8.384 7.548L8.816 7.916H6.288L6.832 7.548L5.456 16.252L5.312 15.916L6.752 16.332L6.576 17.5H1.728ZM15.0334 17.58L15.8974 12.22C15.9614 11.8893 15.9774 11.596 15.9454 11.34C15.9134 11.084 15.8387 10.8813 15.7214 10.732C15.604 10.5827 15.4227 10.508 15.1774 10.508C14.9534 10.508 14.7187 10.5773 14.4734 10.716C14.2387 10.8547 14.0094 11.0627 13.7854 11.34C13.572 11.6067 13.38 11.9533 13.2094 12.38C13.0387 12.796 12.9107 13.292 12.8254 13.868L12.2494 17.5H10.0414L11.8174 6.348L12.0894 6.732L10.6814 6.38L10.8734 5.164L14.2014 5.036L13.0334 11.612L12.2014 12.828C12.4254 11.868 12.7507 11.0893 13.1774 10.492C13.6147 9.89467 14.1 9.45733 14.6334 9.18C15.1667 8.90267 15.6787 8.764 16.1694 8.764C16.66 8.764 17.0707 8.88667 17.4014 9.132C17.732 9.36667 17.9667 9.708 18.1054 10.156C18.2547 10.5933 18.276 11.116 18.1694 11.724L17.4494 16.3L16.5054 15.612L18.6014 16.284L18.3934 17.484L15.0334 17.58ZM22.9628 17.692C22.3441 17.692 21.7841 17.5693 21.2828 17.324C20.7814 17.0787 20.3814 16.6947 20.0828 16.172C19.7948 15.6493 19.6508 14.972 19.6508 14.14C19.6508 13.4573 19.7574 12.796 19.9708 12.156C20.1948 11.5053 20.5094 10.9293 20.9148 10.428C21.3308 9.916 21.8374 9.51067 22.4348 9.212C23.0321 8.91333 23.7094 8.764 24.4668 8.764C25.3628 8.764 26.0614 8.972 26.5628 9.388C27.0748 9.79333 27.3308 10.332 27.3308 11.004C27.3308 11.5053 27.1868 11.948 26.8988 12.332C26.6108 12.716 26.2214 13.0413 25.7308 13.308C25.2508 13.564 24.7014 13.7613 24.0828 13.9C23.4748 14.028 22.8401 14.092 22.1788 14.092C22.0614 14.092 21.9548 14.092 21.8588 14.092C21.7734 14.0813 21.6934 14.076 21.6188 14.076L21.7308 12.652C21.8481 12.6627 21.9601 12.6733 22.0668 12.684C22.1841 12.6947 22.3014 12.7 22.4188 12.7C22.7494 12.7 23.0748 12.6733 23.3948 12.62C23.7254 12.556 24.0188 12.4653 24.2748 12.348C24.5414 12.22 24.7548 12.0653 24.9148 11.884C25.0748 11.692 25.1548 11.4733 25.1548 11.228C25.1548 10.972 25.0641 10.764 24.8828 10.604C24.7121 10.4333 24.4721 10.348 24.1628 10.348C23.7894 10.348 23.4588 10.4653 23.1708 10.7C22.8934 10.924 22.6534 11.2227 22.4508 11.596C22.2588 11.9693 22.1094 12.3747 22.0028 12.812C21.8961 13.2493 21.8428 13.676 21.8428 14.092C21.8428 14.796 21.9868 15.3027 22.2748 15.612C22.5734 15.9213 22.9681 16.076 23.4588 16.076C23.8108 16.076 24.1894 16.012 24.5948 15.884C25.0001 15.756 25.4214 15.58 25.8588 15.356L26.4348 16.652C25.8481 16.9933 25.2561 17.2547 24.6588 17.436C24.0721 17.6067 23.5068 17.692 22.9628 17.692ZM35.1929 17.692C34.4569 17.692 33.7795 17.5213 33.1609 17.18C32.5529 16.8387 32.0622 16.316 31.6889 15.612C31.3262 14.8973 31.1449 14.0067 31.1449 12.94C31.1449 12.044 31.2782 11.1853 31.5449 10.364C31.8222 9.532 32.2115 8.796 32.7129 8.156C33.2249 7.50533 33.8382 6.99333 34.5529 6.62C35.2782 6.236 36.0889 6.044 36.9849 6.044C37.5289 6.044 38.0782 6.11867 38.6329 6.268C39.1875 6.40667 39.7635 6.61467 40.3609 6.892L39.8009 9.724H38.4729L38.3769 7.9L38.7609 8.236C38.4409 8.09733 38.1209 7.996 37.8009 7.932C37.4915 7.868 37.2089 7.836 36.9529 7.836C36.3875 7.836 35.8915 7.98533 35.4649 8.284C35.0382 8.58267 34.6755 8.97733 34.3769 9.468C34.0889 9.95867 33.8702 10.5027 33.7209 11.1C33.5822 11.6867 33.5129 12.268 33.5129 12.844C33.5129 13.548 33.6089 14.1187 33.8009 14.556C34.0035 14.9933 34.2702 15.3133 34.6009 15.516C34.9422 15.7187 35.3209 15.82 35.7369 15.82C36.1529 15.82 36.5902 15.724 37.0489 15.532C37.5182 15.34 37.9715 15.068 38.4089 14.716L39.1449 16.14C38.5155 16.6627 37.8595 17.052 37.1769 17.308C36.4942 17.564 35.8329 17.692 35.1929 17.692ZM44.9046 8.764C45.5446 8.764 46.11 8.88133 46.6006 9.116C47.0913 9.34 47.4753 9.71333 47.7526 10.236C48.03 10.748 48.1686 11.4253 48.1686 12.268C48.1686 12.94 48.0726 13.6013 47.8806 14.252C47.6886 14.892 47.3953 15.4733 47.0006 15.996C46.606 16.508 46.1046 16.9187 45.4966 17.228C44.8993 17.5373 44.19 17.692 43.3686 17.692C42.718 17.692 42.1473 17.5747 41.6566 17.34C41.166 17.1053 40.782 16.732 40.5046 16.22C40.238 15.708 40.1046 15.036 40.1046 14.204C40.1046 13.532 40.1953 12.876 40.3766 12.236C40.5686 11.5853 40.862 10.9987 41.2566 10.476C41.6513 9.95333 42.1473 9.53733 42.7446 9.228C43.3526 8.91867 44.0726 8.764 44.9046 8.764ZM44.6006 10.38C44.1846 10.38 43.8326 10.5133 43.5446 10.78C43.2566 11.036 43.022 11.3667 42.8406 11.772C42.67 12.1667 42.542 12.5827 42.4566 13.02C42.382 13.4573 42.3446 13.852 42.3446 14.204C42.3446 14.78 42.446 15.2387 42.6486 15.58C42.862 15.9107 43.198 16.076 43.6566 16.076C44.0726 16.076 44.4246 15.948 44.7126 15.692C45.0006 15.4253 45.2353 15.0893 45.4166 14.684C45.598 14.2787 45.726 13.8573 45.8006 13.42C45.886 12.9827 45.9286 12.588 45.9286 12.236C45.9286 11.66 45.822 11.2067 45.6086 10.876C45.406 10.5453 45.07 10.38 44.6006 10.38ZM47.7934 21.372C47.5587 21.372 47.3454 21.356 47.1534 21.324C46.9507 21.3027 46.7747 21.2813 46.6254 21.26L46.9774 19.708C47.0734 19.7187 47.1694 19.7293 47.2654 19.74C47.3614 19.7507 47.4574 19.756 47.5534 19.756C48.012 19.756 48.3854 19.628 48.6734 19.372C48.972 19.1267 49.1694 18.7 49.2654 18.092L50.5294 10.124L50.8814 10.54H49.2334L49.4254 9.324L50.9614 8.972L50.6574 9.372L50.8174 8.3C50.9347 7.55333 51.18 6.94 51.5534 6.46C51.9374 5.98 52.4174 5.62267 52.9934 5.388C53.5694 5.15333 54.204 5.036 54.8974 5.036C55.4627 5.036 56.06 5.116 56.6894 5.276C57.3187 5.42533 57.948 5.644 58.5774 5.932L57.2174 7.18C56.844 6.988 56.4654 6.83867 56.0814 6.732C55.708 6.62533 55.356 6.572 55.0254 6.572C54.524 6.572 54.092 6.70533 53.7294 6.972C53.3667 7.228 53.1374 7.63867 53.0414 8.204L52.8334 9.452L52.5454 9.02H57.4574L57.2334 10.54H52.2894L52.7214 10.124L51.5534 17.548C51.4254 18.316 51.2334 18.9453 50.9774 19.436C50.7214 19.9373 50.4227 20.3267 50.0814 20.604C49.74 20.892 49.372 21.0893 48.9774 21.196C48.5827 21.3133 48.188 21.372 47.7934 21.372ZM53.1374 21.372C52.9027 21.372 52.684 21.356 52.4814 21.324C52.2894 21.3027 52.1187 21.2813 51.9694 21.26L52.3214 19.708C52.396 19.708 52.4814 19.7133 52.5774 19.724C52.684 19.7453 52.7907 19.756 52.8974 19.756C53.164 19.756 53.3934 19.7187 53.5854 19.644C53.788 19.5693 53.9534 19.4573 54.0814 19.308C54.2094 19.1693 54.316 18.9987 54.4014 18.796C54.4867 18.5933 54.5507 18.3587 54.5934 18.092L56.1614 8.268C56.3427 7.116 56.7694 6.27333 57.4414 5.74C58.124 5.196 58.9347 4.924 59.8734 4.924C60.1827 4.924 60.4867 4.95067 60.7854 5.004C61.0947 5.05733 61.404 5.13733 61.7134 5.244L61.1534 6.764C60.9934 6.7 60.8227 6.652 60.6414 6.62C60.46 6.57733 60.2787 6.556 60.0974 6.556C59.6814 6.556 59.3134 6.67867 58.9934 6.924C58.6734 7.15867 58.4707 7.55867 58.3854 8.124L58.1934 9.34L57.9694 9.02H60.4174L60.1614 10.54H57.8094L58.0334 10.268L56.8814 17.564C56.7747 18.268 56.5987 18.86 56.3534 19.34C56.1187 19.8307 55.8307 20.2253 55.4894 20.524C55.1587 20.8227 54.7907 21.036 54.3854 21.164C53.98 21.3027 53.564 21.372 53.1374 21.372ZM63.369 17.692C62.7503 17.692 62.1903 17.5693 61.689 17.324C61.1877 17.0787 60.7877 16.6947 60.489 16.172C60.201 15.6493 60.057 14.972 60.057 14.14C60.057 13.4573 60.1637 12.796 60.377 12.156C60.601 11.5053 60.9157 10.9293 61.321 10.428C61.737 9.916 62.2437 9.51067 62.841 9.212C63.4383 8.91333 64.1157 8.764 64.873 8.764C65.769 8.764 66.4677 8.972 66.969 9.388C67.481 9.79333 67.737 10.332 67.737 11.004C67.737 11.5053 67.593 11.948 67.305 12.332C67.017 12.716 66.6277 13.0413 66.137 13.308C65.657 13.564 65.1077 13.7613 64.489 13.9C63.881 14.028 63.2463 14.092 62.585 14.092C62.4677 14.092 62.361 14.092 62.265 14.092C62.1797 14.0813 62.0997 14.076 62.025 14.076L62.137 12.652C62.2543 12.6627 62.3663 12.6733 62.473 12.684C62.5903 12.6947 62.7077 12.7 62.825 12.7C63.1557 12.7 63.481 12.6733 63.801 12.62C64.1317 12.556 64.425 12.4653 64.681 12.348C64.9477 12.22 65.161 12.0653 65.321 11.884C65.481 11.692 65.561 11.4733 65.561 11.228C65.561 10.972 65.4703 10.764 65.289 10.604C65.1183 10.4333 64.8783 10.348 64.569 10.348C64.1957 10.348 63.865 10.4653 63.577 10.7C63.2997 10.924 63.0597 11.2227 62.857 11.596C62.665 11.9693 62.5157 12.3747 62.409 12.812C62.3023 13.2493 62.249 13.676 62.249 14.092C62.249 14.796 62.393 15.3027 62.681 15.612C62.9797 15.9213 63.3743 16.076 63.865 16.076C64.217 16.076 64.5957 16.012 65.001 15.884C65.4063 15.756 65.8277 15.58 66.265 15.356L66.841 16.652C66.2543 16.9933 65.6623 17.2547 65.065 17.436C64.4783 17.6067 63.913 17.692 63.369 17.692ZM71.6346 17.692C71.016 17.692 70.456 17.5693 69.9546 17.324C69.4533 17.0787 69.0533 16.6947 68.7546 16.172C68.4666 15.6493 68.3226 14.972 68.3226 14.14C68.3226 13.4573 68.4293 12.796 68.6426 12.156C68.8666 11.5053 69.1813 10.9293 69.5866 10.428C70.0026 9.916 70.5093 9.51067 71.1066 9.212C71.704 8.91333 72.3813 8.764 73.1386 8.764C74.0346 8.764 74.7333 8.972 75.2346 9.388C75.7466 9.79333 76.0026 10.332 76.0026 11.004C76.0026 11.5053 75.8586 11.948 75.5706 12.332C75.2826 12.716 74.8933 13.0413 74.4026 13.308C73.9226 13.564 73.3733 13.7613 72.7546 13.9C72.1466 14.028 71.512 14.092 70.8506 14.092C70.7333 14.092 70.6266 14.092 70.5306 14.092C70.4453 14.0813 70.3653 14.076 70.2906 14.076L70.4026 12.652C70.52 12.6627 70.632 12.6733 70.7386 12.684C70.856 12.6947 70.9733 12.7 71.0906 12.7C71.4213 12.7 71.7466 12.6733 72.0666 12.62C72.3973 12.556 72.6906 12.4653 72.9466 12.348C73.2133 12.22 73.4266 12.0653 73.5866 11.884C73.7466 11.692 73.8266 11.4733 73.8266 11.228C73.8266 10.972 73.736 10.764 73.5546 10.604C73.384 10.4333 73.144 10.348 72.8346 10.348C72.4613 10.348 72.1306 10.4653 71.8426 10.7C71.5653 10.924 71.3253 11.2227 71.1226 11.596C70.9306 11.9693 70.7813 12.3747 70.6746 12.812C70.568 13.2493 70.5146 13.676 70.5146 14.092C70.5146 14.796 70.6586 15.3027 70.9466 15.612C71.2453 15.9213 71.64 16.076 72.1306 16.076C72.4826 16.076 72.8613 16.012 73.2666 15.884C73.672 15.756 74.0933 15.58 74.5306 15.356L75.1066 16.652C74.52 16.9933 73.928 17.2547 73.3306 17.436C72.744 17.6067 72.1786 17.692 71.6346 17.692ZM82.6968 17.692C82.1528 17.692 81.5874 17.6333 81.0008 17.516C80.4248 17.3987 79.8648 17.228 79.3208 17.004L79.8168 13.98H81.1608L81.2088 15.916L81.0008 15.548C81.3101 15.6867 81.6301 15.7933 81.9608 15.868C82.3021 15.9427 82.6381 15.98 82.9688 15.98C83.3741 15.98 83.7474 15.9213 84.0888 15.804C84.4301 15.676 84.7021 15.4947 84.9048 15.26C85.1181 15.0253 85.2248 14.7373 85.2248 14.396C85.2248 14.0333 85.1128 13.7453 84.8888 13.532C84.6648 13.3187 84.3714 13.1373 84.0088 12.988C83.6568 12.8387 83.2781 12.6893 82.8728 12.54C82.4674 12.3907 82.0834 12.204 81.7208 11.98C81.3688 11.7453 81.0754 11.4413 80.8408 11.068C80.6168 10.6947 80.5048 10.2093 80.5048 9.612C80.5048 8.82267 80.7021 8.16667 81.0968 7.644C81.5021 7.12133 82.0354 6.72667 82.6968 6.46C83.3688 6.18267 84.1048 6.044 84.9048 6.044C85.4381 6.044 85.9874 6.108 86.5528 6.236C87.1181 6.35333 87.6781 6.52933 88.2328 6.764L87.6568 9.548H86.3448L86.2808 7.82L86.5528 8.06C86.2754 7.95333 85.9874 7.87333 85.6888 7.82C85.3901 7.76667 85.1021 7.74 84.8248 7.74C84.4514 7.74 84.1048 7.79333 83.7848 7.9C83.4648 7.996 83.2088 8.15067 83.0168 8.364C82.8248 8.57733 82.7288 8.83867 82.7288 9.148C82.7288 9.47867 82.8408 9.74533 83.0648 9.948C83.2994 10.14 83.5981 10.3107 83.9608 10.46C84.3234 10.5987 84.7021 10.748 85.0968 10.908C85.5021 11.0573 85.8861 11.2493 86.2488 11.484C86.6114 11.708 86.9048 12.012 87.1288 12.396C87.3634 12.78 87.4808 13.2813 87.4808 13.9C87.4808 14.7427 87.2568 15.4467 86.8088 16.012C86.3714 16.5667 85.7901 16.988 85.0648 17.276C84.3501 17.5533 83.5608 17.692 82.6968 17.692ZM93.7834 17.58L94.6474 12.22C94.7114 11.8893 94.7274 11.596 94.6954 11.34C94.6634 11.084 94.5887 10.8813 94.4714 10.732C94.354 10.5827 94.1727 10.508 93.9274 10.508C93.7034 10.508 93.4687 10.5773 93.2234 10.716C92.9887 10.8547 92.7594 11.0627 92.5354 11.34C92.322 11.6067 92.13 11.9533 91.9594 12.38C91.7887 12.796 91.6607 13.292 91.5754 13.868L90.9994 17.5H88.7914L90.5674 6.348L90.8394 6.732L89.4314 6.38L89.6234 5.164L92.9514 5.036L91.7834 11.612L90.9514 12.828C91.1754 11.868 91.5007 11.0893 91.9274 10.492C92.3647 9.89467 92.85 9.45733 93.3834 9.18C93.9167 8.90267 94.4287 8.764 94.9194 8.764C95.41 8.764 95.8207 8.88667 96.1514 9.132C96.482 9.36667 96.7167 9.708 96.8554 10.156C97.0047 10.5933 97.026 11.116 96.9194 11.724L96.1994 16.3L95.2554 15.612L97.3514 16.284L97.1434 17.484L93.7834 17.58ZM103.233 8.764C103.873 8.764 104.438 8.88133 104.929 9.116C105.419 9.34 105.803 9.71333 106.081 10.236C106.358 10.748 106.497 11.4253 106.497 12.268C106.497 12.94 106.401 13.6013 106.209 14.252C106.017 14.892 105.723 15.4733 105.329 15.996C104.934 16.508 104.433 16.9187 103.825 17.228C103.227 17.5373 102.518 17.692 101.697 17.692C101.046 17.692 100.475 17.5747 99.9848 17.34C99.4941 17.1053 99.1101 16.732 98.8328 16.22C98.5661 15.708 98.4328 15.036 98.4328 14.204C98.4328 13.532 98.5234 12.876 98.7048 12.236C98.8968 11.5853 99.1901 10.9987 99.5848 10.476C99.9794 9.95333 100.475 9.53733 101.073 9.228C101.681 8.91867 102.401 8.764 103.233 8.764ZM102.929 10.38C102.513 10.38 102.161 10.5133 101.873 10.78C101.585 11.036 101.35 11.3667 101.169 11.772C100.998 12.1667 100.87 12.5827 100.785 13.02C100.71 13.4573 100.673 13.852 100.673 14.204C100.673 14.78 100.774 15.2387 100.977 15.58C101.19 15.9107 101.526 16.076 101.985 16.076C102.401 16.076 102.753 15.948 103.041 15.692C103.329 15.4253 103.563 15.0893 103.745 14.684C103.926 14.2787 104.054 13.8573 104.129 13.42C104.214 12.9827 104.257 12.588 104.257 12.236C104.257 11.66 104.15 11.2067 103.937 10.876C103.734 10.5453 103.398 10.38 102.929 10.38ZM105.913 21.18L106.105 20.012L108.33 19.356L107.162 20.588L108.794 10.188L109.082 10.572L107.642 10.172L107.834 9.004L111.082 8.892L110.506 11.66L109.914 12.812C110.095 11.916 110.383 11.1693 110.778 10.572C111.183 9.964 111.642 9.51067 112.154 9.212C112.676 8.91333 113.188 8.764 113.69 8.764C114.106 8.764 114.49 8.87067 114.842 9.084C115.194 9.29733 115.476 9.644 115.69 10.124C115.903 10.604 116.01 11.2387 116.01 12.028C116.01 13.0627 115.828 13.9693 115.466 14.748C115.103 15.5267 114.596 16.156 113.946 16.636C113.295 17.116 112.516 17.4253 111.61 17.564C110.714 17.7027 109.732 17.6493 108.666 17.404L109.882 17.196L109.338 20.652L108.554 19.324L110.698 20.012L110.506 21.18H105.913ZM110.026 16.3L109.594 15.708C110.223 15.9533 110.794 16.0387 111.306 15.964C111.828 15.8893 112.271 15.692 112.634 15.372C112.996 15.0413 113.274 14.6093 113.466 14.076C113.668 13.5427 113.77 12.94 113.77 12.268C113.77 11.6493 113.674 11.2067 113.482 10.94C113.3 10.6627 113.06 10.524 112.762 10.524C112.538 10.524 112.308 10.5987 112.074 10.748C111.839 10.8973 111.61 11.116 111.386 11.404C111.162 11.692 110.964 12.0493 110.794 12.476C110.623 12.9027 110.495 13.3933 110.41 13.948L110.026 16.3Z" fill="black" fill-opacity="0.2"/>
<path d="M125 2H127V5H125V2ZM129 2H131V5H129V2ZM133 2H135V5H133V2ZM139 9H137V8C137 7.73478 136.895 7.48043 136.707 7.29289C136.52 7.10536 136.265 7 136 7H124C123.735 7 123.48 7.10536 123.293 7.29289C123.105 7.48043 123 7.73478 123 8V18C123 18.7956 123.316 19.5587 123.879 20.1213C124.441 20.6839 125.204 21 126 21H134C134.796 21 135.559 20.6839 136.121 20.1213C136.684 19.5587 137 18.7956 137 18H139C140.103 18 141 17.103 141 16V11C141 9.897 140.103 9 139 9ZM137 16V11H139L139.002 16H137Z" fill="#EEEDEB"/>
<path d="M125 2H127V5H125V2ZM129 2H131V5H129V2ZM133 2H135V5H133V2ZM139 9H137V8C137 7.73478 136.895 7.48043 136.707 7.29289C136.52 7.10536 136.265 7 136 7H124C123.735 7 123.48 7.10536 123.293 7.29289C123.105 7.48043 123 7.73478 123 8V18C123 18.7956 123.316 19.5587 123.879 20.1213C124.441 20.6839 125.204 21 126 21H134C134.796 21 135.559 20.6839 136.121 20.1213C136.684 19.5587 137 18.7956 137 18H139C140.103 18 141 17.103 141 16V11C141 9.897 140.103 9 139 9ZM137 16V11H139L139.002 16H137Z" fill="black" fill-opacity="0.2"/>
</svg>
