<svg width="42" height="42" viewBox="0 0 42 42" fill="none" xmlns="http://www.w3.org/2000/svg">
<path d="M38.5 5.96751L38.29 3.76251L36.19 4.46251C32.591 5.71297 28.7477 6.09669 24.9725 5.58251C21.0055 4.96688 16.9451 5.51394 13.2825 7.15751C11.3408 7.98429 9.6368 9.28361 8.32556 10.9372C7.01433 12.5907 6.13752 14.546 5.77498 16.625C5.3049 19.3107 5.54007 22.0725 6.45748 24.64C7.0482 23.3067 7.73849 22.0197 8.52248 20.79C10.3008 18.1735 12.765 16.0968 15.645 14.7875C18.4195 13.5207 21.4522 12.9214 24.5 13.0375C21.5985 13.4811 18.8212 14.5241 16.345 16.1C15.1506 16.8505 14.0567 17.7503 13.09 18.7775C12.1654 19.8043 11.3502 20.9245 10.6575 22.12C9.35641 24.619 8.43063 27.2961 7.90998 30.065C7.34878 32.8429 7.04417 35.6664 6.99998 38.5H10.5C10.6645 35.9587 11.0095 33.4324 11.5325 30.94C13.9605 32.2511 16.6833 32.9198 19.4425 32.8825C22.0158 32.8807 24.5627 32.363 26.9325 31.36C40.25 25.6725 38.5 6.75501 38.5 5.96751Z" fill="#0A6847"/>
</svg>
